<mxfile host="app.diagrams.net" agent="Mozilla/5.0 (X11; Ubuntu; Linux x86_64; rv:135.0) Gecko/20100101 Firefox/135.0" version="26.0.5">
  <diagram id="R2lEEEUBdFMjLlhIrx00" name="Page-1">
    <mxGraphModel dx="1167" dy="639" grid="1" gridSize="10" guides="1" tooltips="1" connect="1" arrows="1" fold="1" page="1" pageScale="1" pageWidth="850" pageHeight="1100" math="0" shadow="0" extFonts="Permanent Marker^https://fonts.googleapis.com/css?family=Permanent+Marker">
      <root>
        <mxCell id="0" />
        <mxCell id="1" parent="0" />
        <mxCell id="pUrFRmJCfLfQvqRxiuOl-4" value="" style="shape=image;verticalLabelPosition=bottom;labelBackgroundColor=default;verticalAlign=top;aspect=fixed;imageAspect=0;image=data:image/png,iVBORw0KGgoAAAANSUhEUgAAAGsAAABsCAYAAABtuky0AAAABHNCSVQICAgIfAhkiAAAABl0RVh0U29mdHdhcmUAZ25vbWUtc2NyZWVuc2hvdO8Dvz4AAAAuaVRYdENyZWF0aW9uIFRpbWUAAAAAANCh0YAgMjYg0YTQtdCyIDIwMjUgMTM6MzM6NDGqSpIjAAANhElEQVR4nO2db2xUVZ/HP+fcO9NOO32AWmjxEbEIXSy4KhiWxbU+EDEKiho3a9B9bFCjRrPZNwbfGGPQZN+qiUSiEuFNTdCEkMgLMbLLQnzIA5rFTUstyyP/+4epT9vptJ2595x9MXOHmTJtp3TunV6e+02bO/fMub9z53zu73fOPffMGaG11gTyhWS5TyBQ8Qpg+UgBLB8pgOUjBbB8pACWjxTA8pECWD5SAMtHCmD5SKaXhWmtr/u/UQkhsv9S/m1cc57A0lqjlGKgu4/L/9vFxROniPdcxUqMYI2NoVVhaFJoDKHTWzJbmd5KNLesvIvmF56nat48pJQIIbz4OGWT67C01ti2Tfcvv/JfH+5lpH+AsYFBrJERtJ1C2zaTOZgUGlNoDKEwMrCc1yOxflKJBPf+2+tEotGbHphwc9TdAXWp4//49j8+46/nr5CMxxE64x1CI4Rmquo1Mh52HTCpidbV0vCPa1jR+kdqFsx3JSTOlgvAVc/SWpNKpTj1zX9zueMvYFsIwBCgdLoCJMAUwGwtAA1IhFCgAClBKeJ9/fT86c9o2+au1j8SCpl5lZtvN31dTlT3omA+kf6TEiENhGEiwxVIM5RtM72Sq7CUUoyOjPDLf57ESimkEEihsbXAEBoFoEWRwCSgQElMqRAqXYGgGOqNoY+fYPjsXxAZLxQCJAopyHqx09ZJdDpdKiQgRWYrnWMzbaQEKQWG1AjDwAhXICorkHPqMO9aQ+QfHsEMV3gGzTVYTgi88PMZhnr7gRxvEhqVgaSEzgITYvKIbGsJQoESaZdUgBQIYPjqb4zG+rNQDKHyOih5nRUHWiacSsCQCoM0wGthVyONNCzTkBghEzMcwohEUF0/YZ06SuRf/p2KuoWetJeuwrIsi4v/8wupMQuRjiZZYORAUg4knfa8yaSUREiFpUgDczzuWsmAQBTwUzF+xwmnIu2xSAV63JG2RiiNpVJoK4ka1ZhDvyENgRz8jUSkBvmv2wmHw/6HdfX8lcy+yIY6B5jI9TBIv6/FpB6mATtTsbYDLGNBaRuV8R6V41HOaxuNFApDknmtkUpjyHQoNHS+Fxq53qjAlOn2Fikw0TBwFU5+R+IP/4yxeJnr4dBVWEopEv2DmWsd0AI9DphRAJgxDWBox2MVVIaQgpzQl2m3JJl2Kvf/WprTzklyXmehOflU+hYCm7CdpFIrKg0Bv/WQ+vMhrN83YhiGv2GNDY+l9zPpIgeY1iLT7OQDE0Kn27DJ7AO2SsdWjYVaehup+5rRsvDVPT6tmDy5klojUYTsFJGRARb1nGbRlXaq0KjOk6RSKcLh8CRnPHO533UfTaIznjIeGIAzeCEz3fncFkhO0UPUCCxsxOIGRlcspffK5YJDWKWAJ6VESkkoFCISqeFq4z8xUFnLyvN/ourqZVKpFEopDMOY5IxnJtdhWbaVee0A06AVoNCoTHjUaOG0YemwYwiNyqRNBkw21pNa/Xf09fWhlJqxB02Ux+nd2rbN6OgoUkpS85uIJIdoTlzGTiVnNNZZjFwNgwC20tg6U/naIhQxMevmICNhVNhAhA0wJcJWYKssnGxV5e3kS4QNxhY3cLWvD9u2bwhCobRi7GiticVi/DJvCUv/ep4KP8OCzNWobCw7hagQ1KxegrlsAUqk3xOZkXelFCITZiBdWc7H1kxceUop+np7C3qUY2ey/YnSpmOnV4XoiTYQ9WCurOsDubZWEDWoeXgFyUpJf+wqlmWhlCr4mORGKrhUEIq1nauxsTEuzVvEkpsClrKp/PvfM6DHiPfFs+luXOXTSStl+X2h6LXuroty/amdEgqrLkI8Hp80X6naklKCKrb8AaNy4tHhEsp1WKGFvyMxOpKX5kVbMhM70z0uaSmUB2HQdVh2lYlt29l9L3tsXnmZ0gql7PGHlFyuwtJak9KTfwg/etl1eTQoNbM5JcXIfc/K6cJ46R2lsjNd224Ccx1W1bzfAeX1DrfbMi0EmKEp7c1UrsISQiBmMLA61TFu2pnuceO3bsh1z5qN3lFMnumW78WjfddgTXTys8073LwISi3XPSt3aths9A637Lihss47nm3eMdu9zP3hJpV+lOj2kM9stlMqeeJZfmyDbtSOm5oVvcGbxcvcludtlpejDTebl3kKazZWcKm8zAt5BsvNIR8/tImlUNm67oGXTV9l6Q3ezF7mpmbFl3G99LJSlu+1yt4bdNPLvCrfzVm4uSp7b7CYPLMtRI4HdVPCGi8v77mKsT1dOw6om643WO6B1VJ7mdegoIxjg14OHZX6QikU+rxYargsYdDPXpYLyknzak1oTx8+gr+9rBAo57UX4dB1WKZ5bS7abOpuT8c2TAxqOuXPVK7PbnJChNdDPqUEPBUopZQni325P2+wqqpgeqkq2G0vm+o+qpg8pZKrs5uklNTU1JT9vuhGjxsPYSI74XDYk0VLXIfV0NCQ98WEifJOleb16IdpmpOCcqSUorq62v+wTNPkzjvvzOvauhnGislTTPnjQU1me2xsjKVLl3pyg+wqLMMwiEaj1NfXk0wmPfWOG7VTCNREti3LwjRN7rjjDkzTdL2T4TqsyspK1qxZg2VZxONxUqkUtm0XfSPpZYicDJTzRXXbtkkmkwwNDRGLxbj77ruJRqOEQiHXPcvVxSFt2yaRSNDT00N7eztHjhzh8uXL6YIL3EhO9WHd7v4Xe5zWmjlz5rBu3TpWrFjBrbfeSnV1dd49pRtyfSXPVCrF8PAwvb29dHd3c+XKFWKxGCMjI1iWhWVZMyqjVO3bZMc5naVQKERFRQVz586loaGB+vp66uvriUaj2R6hm3IVFqR7S6lUipGRERKJBIODg8TjcZLJZHbFFj/IMAyklITDYaLRKDU1NVRVVRGJRDzrursOy1nrwvGiZDJ53ToYs/3H8RwIzvpNpmkSCoUIhUJZiF4MN7kOy5HTQOdu/QDKUS4wJyx6vdq1Z7Ac5RbnF1COxo+0e15+8AOd/tGsmIoWqDgFsHykAJaPFMDykQJYPlIAy0cKYPlIASwfKYDlIwWwfKQAlo8UwPKRAlg+kme/UxyLxdi5cyednZ309vaSSqVoaGjgpZdeYsGCBbS1tdHR0UEikWDx4sW8+uqr3H///QB8/vnn7N+/nwMHDuQ9mhgeHmbz5s3s2LGDlpYWRkdHefPNN7lw4QLxeJza2lo2bdpEa2tr9pF7LBbjo48+oquri/7+fizLYuHChWzcuJGtW7cSCl1bkfPUqVPs3buXX3/9lYGBAQzDoLGxkWeeeYaHH37Yq6rLyjNYfX19HDp0iG3btrFy5UqEEBw7dowdO3YQDofZsmULmzZtwjRN9u3bx1tvvUVbWxsLFixg3bp17Nmzh66uLpqamrI2f/75Z7TW3HvvvQBUVlbywAMP0NjYSDgcpqOjg927d2MYBi+88EL2PA4fPszLL79Mc3MzAO3t7bS1tXH8+HE+/PDD7MSX9vZ2Tp06xfbt27nlllsYHR3l2LFjvPfee5w5c4bXXnvNq+pLS3ukjo4O/eCDD+qzZ8/mpb/++uv67bffzkuLx+N6w4YNet++fVprrZVS+sknn9SfffZZXr5du3bpbdu2TVruBx98oLdu3TrleXR2dur169frL7/8MpvW1tamN2/efJ3Nr776Sre0tOiOjo5Jyy61yt5mNTc3c+7cuby06upqbr/9di5cuACkn8q2tLRw+PDhvHwnT55k1apVk9pfsmQJPT09U55HU1MTa9eu5dtvv50y79NPP01NTQ3ffffdlHlLKc/C4ESqqalhaGioYHoikcjuP/744+zfv5/Tp0+zfPlyBgcH6ezszAtFIyMj7Nmzh6NHj9Lb20s4HKaqqqroGVTLli3jxx9/nDKflJIlS5Zw6dKlouyWSmWHZRhGwbkYhmFkF5aE9JXf1NTEwYMHWb58OSdOnCAajXLPPfdk87zzzjucPXuWF198kcbGRqSUHDx4kAMHDhR1LnoaE3imk7dUKnsYnI62bNnCoUOHGB4e5siRI6xbty7byxscHOT48eO88cYbbN68mebmZpYvX87KlSuLtn/u3DkWLlw4ZT6lFBcvXiwqbynlK1iPPfYYkUiEr7/+mh9++IGNGzdm33O8MNcbp6Pu7m6OHj3KQw89NGXe77//nlgsRktLyw2VdaMqexicjkKhEM899xw7d+6ktraW1atXZ9+bO3cuzc3N7Nq1C8uyWLRoEbZtc/r06YK23n33XZ566ikWLVpEd3c3u3fvpr6+nmeffTYv3+DgINu3b+eRRx5hzpw5tLe3s3fvXjZs2MB9993n6ucdL1/BAnjiiSf45JNPePTRR6+bW/7++++zc+dOPv74Y+LxONFolNraWtavX3+dnVWrVvHNN99w/vx5qqurWbt2La+88sp1X6utrq7mtttu44svvqC7u5v58+fT2trK888/7+rnLChPbxRKoGPHjukNGzbovr6+Gzp+ovusQproPqtc8oVn/fTTT4TDYc6cOcOnn35Ka2srdXV15T4tz+ULWLt27aKrq4u6ujq2bt1anhA0CxRMn/aRfNV1/1tXAMtHCmD5SAEsHymA5SMFsHykAJaPFMDykQJYPlIAy0cKYPlI/w/bhHWVH4+wjwAAAABJRU5ErkJggg==;" vertex="1" parent="1">
          <mxGeometry x="270" y="50" width="107" height="108" as="geometry" />
        </mxCell>
        <mxCell id="pUrFRmJCfLfQvqRxiuOl-5" value="" style="shape=image;verticalLabelPosition=bottom;labelBackgroundColor=default;verticalAlign=top;aspect=fixed;imageAspect=0;image=data:image/png,iVBORw0KGgoAAAANSUhEUgAAAGsAAABsCAYAAABtuky0AAAABHNCSVQICAgIfAhkiAAAABl0RVh0U29mdHdhcmUAZ25vbWUtc2NyZWVuc2hvdO8Dvz4AAAAuaVRYdENyZWF0aW9uIFRpbWUAAAAAANCh0YAgMjYg0YTQtdCyIDIwMjUgMTM6MzM6NTm9iitQAAAM40lEQVR4nO2dW2wcVZrHf+dU39122rEdEo9M0mZYOdmQHW4BBkgIQkJDMkIRyqIoAiQEC1Gy0oCCCELiAYLYRUK8QBAQBfIwGhMpL2jwIGZDFgkxCw97ZQjZXbJySLJx0vGl3d3udnWdMw99cRu33W27q9qV1F9quVx1zneqzq++73x1uqpaaK01nlwh2ewd8FS/PFgukgfLRfJguUgeLBfJg+UiebBcJA+Wi+TBcpE8WC6SB8tF8tndgNZ6xmcxklIihCh/ribZBqsEJpNMceHk/3Lmm/9gdPAcZipDPpdD5a2q9SQaKTVSgIHCEBopiuuASGc7G3Y/ybKeHgzDuKqACTtm3bXWKKVIXhrmj/94iNSFS+TGkpjpNCpvovPWnB4mhcYQGkMUYBlSY6AxpCIQCrL852v4m9/8PR298asKmC2wlFKkk+P84cB7/PivfyY7MoZQCik0ougptbp3ClgRWhGYTypCrS103rCO9U8+Tsd1vRiG0ehDAFhyJ0HDYWmtMU2T//qnP/HZq4fIJVOFMCYKYWy+wHxFYLIKsPbe1fz17r8juqILKafnSlO2dXlFtfamryvuUxGSkLLwMXzIQADhC5THzGao4bAsyyKdTvO7Pf/AuX8/hUAhYApYEdpCgJU8rLBOEYyGWda9EsMnkaLYBpXtaIQsrkNjiKl2pSiAl3J6eUOANEThf0Mi/QFkKIiMLkOuXkv4zl/jj3U0BVrDEwylFJfPXuDifw+itEZQOHClKw5MaKQWKKgJTGlBHih4iASlQGosJLnUBJf/53Q5ZFb+lcXxTlIY80oQS8uV5Q2pyidFoYxASoXPkBh+Hz6/HyMURJ7+ltS3fyL4t78hvKbP8fGyobC01liWxeUzF8imsghR6GKlp4AJQEERGCgEhpjbubUWWMhiTVmMbIXlAvJSONPFJT21TUxVK+xMxXK5gULtPMUOURo0WDqPzufRuQwqBYahESND8NvXEU8eIHzNz2wbL6vJFljjl0eL/wuE0DOAlbodUUjVS9tmtVusT6mmEiALy1oXvEgVQ5ohdGFZaKwKT7P0VOizVOlSoLhdURgPhSYviqFQaAwFPqkxNPiLTctMivzp/2Ti23/B3/Ggo+HQljCYy2SnzvGfAENoqAQGU+vqBCaEQqiCQ+iAgWH4CsmLVBiAEGpqDCsCK4xVlMcvWREaKz9GRTlDqMIlg1D4LZOQMgkbAjGRIf9v/8zkHb/C5/M55l0N9yytNWbORBfBVAMmhC5EIy3KwISo38PySqLJo5eFMTffigoHq57d9aybyyuE1hgofMoimEuxYvQs1/3f17SqPPLMKUzTXPSMzHxkywyGZU6lBFDdwySgKhINoBDC6gBmaYXqiJLffBOXRkfIJXJ1QZhvmVKI8/v9BINBEl1rGY50cvN3nxIbS5DPmyilZtiwSw2HpbVGK1UIg1qgix0vsNBaAQoFaF0IU6qYaGg0uhiCFJq5hgHZGsS66xcMDV/GNM0Fgaqmn5ZRSiGEIJfLkcvlGB8fJxuNotf/ik1//j2+XPYK8CylUFohhUDoPMIHga5WZEsIHfShgwbCJxFKQV4hinDKXVXMIqv1r5ASdd0qEuPJqqCqqRFeBoUTcTyV4mxLhMuhDkITGffD0lqTtywMnybS20lk43VYPjFt1l0Vva80OJc6RlMCJajWDVprEokEpmlWbdsuL6tcN5aZ4Gx0FSutfE07jZQtsJTWWMKk7Zd/hexZzqXkCKZpYllW1a9JFtrB80kWFmuncp3Wmv8Pd6DU1Nc+TqTvNsFS+Na0M9kVZnTowjQ4zergesvU2/6oPwJVfd8+2fJNsRaallvijI6NzQmqmuzq4EZ6qxCClAiAcPaLdltaM9pCjI4na4Jy0ssWYmeuenmlsJTLPUtrjfLLaQmA097RqDJzta+1JjeZq2m3kbLFs/J67gvFpeIdi7Wj1eLvKZmP7BmzKqwuZe9YrB1V46RstGyBFYiEAHd4x2LsyEi0pv1GyhZYQla/TWwpesdi7Ajp3HdZYAOs2e7nc/I6yEk7Tn5TbM+YVWOGYrZ19ZRZSl7mJCiwKwxWHMSV7GVOy3ZY9Wy7ErzMCdkaBu2e8qmlK83LbJvccjJtr7bOSTtOybGZyCvVy5yUI7DsPMuvJi9rysN0dp7lTnqZ07IdVjMnaO1s/4rJBktq1BjghrHMCTmaDTY7EXDSy+1Q07LBaus8L5tbTcsG3e5lP314zwktiWyw2rql7GVSSnw+2190MENLIht0k5eVQHnZ4CzrloqXNRMUOBwG3exl1UKf0++Cdix1d7OXVYKqLHNFwKonU3KLl80GCnD0eWJwCJZbvaxW1ud6WLU6wg0XtdVA/bSeUgq/3+9osmHPfYOBAND8ucGF2qkFCgrRw+/31912I9TQKzshCrehhUKhJeEdC7FTDyghRDmFd7VnCSFoa2ub8WRis8egeuwYhlFzZqJULxgMOv5KoIbCKoWQrq6ueT/uM5u9WnUaFWqrJROztW9ZFl1dXY6/DqjhnmUYBuFwmI0bNzIxMVG1TLO9rFoKXhp/arWvlGJsbIx4PO74bEbDPcswDILBIBs2bGDZsmUkk0kmJyfLzxPPVq8e27XqLMTOXB5Vel7Ysizy+TyZTIZEIkFvby89PT34/X5HZ98b/go7pRTZbJaRkRFOnTrFV199xcmTJ8sPSTvlQfWe8bWuCUvSWuP3+7n55pu58cYbWbNmDa2trQQCAce8y5aXQ1qWRSaTYXh4mPPnzzM0NMTQ0BCZTAbTNMnn84t6yr1R41SteqWEIxAI0NrayjXXXMOKFSvo7u6mtbWVUCjk6IWxbe/INU2TXC5HOp1mfHycVCpFNpvFsqw5Q+JSkpSyDCwcDhOLxQiHw0QiEYLBoOMJhi2woBAOlVKYpln+VL4Hww2wSmG7BM3v95c/zXiTp22wYGqALoFzEyiYCoklYM1+p7ytsEqqbMItoCpVCa2p++H9mqp75P0WiYvkwXKRPFgukgfLRfJguUgeLBfJg+UiebBcJA+Wi3RVwtqzZw/PPvtss3dj3lqSsPbv388bb7yx4PqmabJt2zaOHz9edXsulyObzS7YfrPk/ENGdWh0dJTOzs4F19dak0wmZ93+/vvvL9h2M7UkYdmtZs+eL1RNmXVPJBIcPHiQb775hnQ6TUdHB9u3b2fXrl0APP3003z33XfT6rz66qvcfffdZLNZ9u3bx48//kgqlWL58uU88MADPPbYY+X7KSYnJ7nvvvtmtDswMEA0GuX5558nEAjwyiuvlLel02k++OADvvjiC4aHh4nFYtxxxx3s27fPxp6Yn5riWS+88AJKKZ577jna29u5cOECwWBwWpl77rmHRx55pPx/d3c3AKFQiDvvvJN4PE4gEODkyZMcPnwYwzB49NFHp9l46qmn2LhxY/n/SCRSdX9yuRx79+7l0qVL7Ny5k3g8TiaTYXJyslGH3BA5DiuZTHLq1ClefvllNm/eDMCGDRtmlGtra+P666+vamPnzp3l5ZtuuolEIsGnn346A9bKlStntVGp/v5+BgcHOXLkCD09PfM5HEfleDbY0tJCLBZjYGCAdDrdEJu9vb0MDQ0tuP7nn3/O5s2blzQoaIJnGYbB66+/zosvvsiOHTt48MEHeeihh+rO/iYmJjhy5AhffvklFy9eJBAIEIlEsKzqP/9ej86dO8e999674PpOqSljVl9fH/39/Xz22WccPXqUo0eP8swzz7Bt27aadV966SVOnz7N448/TjweR0rJwMAAH3/88YL3R2tdfkxpKatpF8V+v5+tW7fy4Ycfsn37dt58803GxsYA8Pl8VT0lmUzy9ddfs2fPHrZu3cq6devo6+tj/fr108qVboeu19tWrVrF4ODgIo/IfjV9BkMIwaZNmzBNk0QiAUBHRwfnz5+fUbb0+4q1fmdRSkl7ezvnzp2rax82bdrEiRMnFjXuOSHHw2Aul+Ott97i1ltvJRaLMTw8zEcffURnZyfXXnstALfffjuvvfYahw4dYu3atVy8eJFYLMaWLVtYt24d7777Lvl8np6eHizL4vvvv5/Rzm233caxY8eIxWKsWLGCH374gbvuuove3t4ZZXft2sWJEyfYvXs3O3bsYPXq1aTTaQYHB3niiSds75N61ZTU/ezZsxw/fpxMJkM0GuWGG25g//795cdu7r//fs6cOcMnn3xCf38/3d3dPPzwwwAcOHCAgwcP8vbbb5NKpYhGoyxfvpwtW7ZMa2fv3r1MTEzw3nvvobUmHo9zyy23VN2nlpYW3nnnHQ4fPsyxY8cYGRmhra2Nvr4+lFJNeU9TNXn3DbpIS+OU8VSXPFgukgfLRfJguUgeLBfJg+UiebBcJA+Wi+TBcpE8WC6SB8tF8mC5SB4sF+kvLlRWbfU2V4sAAAAASUVORK5CYII=;" vertex="1" parent="1">
          <mxGeometry x="120" y="250" width="107" height="108" as="geometry" />
        </mxCell>
        <mxCell id="pUrFRmJCfLfQvqRxiuOl-6" value="" style="shape=image;verticalLabelPosition=bottom;labelBackgroundColor=default;verticalAlign=top;aspect=fixed;imageAspect=0;image=data:image/png,iVBORw0KGgoAAAANSUhEUgAAAGsAAABsCAYAAABtuky0AAAABHNCSVQICAgIfAhkiAAAABl0RVh0U29mdHdhcmUAZ25vbWUtc2NyZWVuc2hvdO8Dvz4AAAAuaVRYdENyZWF0aW9uIFRpbWUAAAAAANCh0YAgMjYg0YTQtdCyIDIwMjUgMTM6MzQ6MjQRrfmTAAAO0UlEQVR4nO2dfWxUVZ/HP+fcmWmnTOkL0BYeiRarBpB19dGCwpiVrBiEP3wBDHl8hGCUsmGzMdHVGGMkGjUmpiioqRIQ4Q/FIFGzaFxNVjRQ42MUHlNcHpGVWkpbWmk7zLQzc8/ZP2bu0OnLdDqdue3F+abN3Hvm3PP2ub/fOffc01Ohtdbk5QjJiS5AXukrD8tBysNykPKwHKQ8LAcpD8tBck1EplrrIb+ZSgiR+JXy0r73bIWltUYpRffZDs78+A9++9sxAm3niAZDRPv70Wp4aFJoDKFjn8Q/ZexTopl27VzmPfAXisrKkFIihLCzWrbJNlhaa0zT5OyJ/+PLV94h1NVNf3cP0VAIbUbQpkkqA5NC4xIaQyiMOCzrONTZRSQY5J///d/w+nyXLDBhxwyGBarl+Ek+e2EH50+3Eg4EEDpuHUIjhGa05jXiFjYEmNT4ppdTdXMt89f9leKKGTlxiRN9A9hiWVprIpEIx/7rK84cPwVmFAEYApSONYAEGAWYqQWgAYkQChQgJShFoKOLtsZv0abJ3HV/xe12JTVucrqx+3OkthfDxhOxHykR0kAYLqSnAOlyJ/rMXMsWWEop+kIhTvzPd0QjCikEUmhMLTCERgFokSYwCShQEpdUCBVrQFD0tneiv/kbF345hYhboRAgUUhBwoqtvk6iY+FSIQEp4p/SujbeR0qQUmBIjTAMDE8BorAAWTId19xavAuX4fIU5BxazmFZLrD57z/T294FDLAmoVFxSEroBDAhUntmU0sQCpSImaQCpEAAF879Tl9nVwKKIVTSACVpsGJBi7tTCRhSYRADeNHtaqQRg+UyJIbbhcvjxvB6Uf/4nuixr/Gu+Q8Kps/MaX9pC6xoNMpvR08Q6Y8iYt4kAYwBkJQFSccsL5WUkgipiCpiwCyLu5gzIBDD2KkYfGK5UxGzWKQCPehKUyOUJqoi6GgY1adx9f6ONASy53eC3mLk/f+Jx+NxPqxzp1vj5yLh6ixgYqCFQex7LVJamAbMeMOaFrB4CkqbqLj1qAEWZR2baKRQGJL4sUYqjSFjrtDQyVZoDLRGBS4Z62+RAhcaus/Bd58T/JdVGJdflTN3aAsspRTBrp74vQ5ogR4EzBgGmDEGYGjLYhUUupGCAa4v3m9J4v3UwN+LYVY/JxlwnIBmxVOxRwhMPGaYQq0oNAT83kbk2/8m+qdqDMNwNqz+C/2x83i4GABMaxHvdpKBCaFjfViq9AFTxXyrJoqquYzI9fPQcvi7e3BYOnEGSmqNROE2I3hD3cxu+4nZrU0UoVH/+x2RSASPx5OixJnLvqF7Xxgdt5TBwACsyQsZH84P7IHkKCNEjSCKibi8ir75NbS3nhl2Cisb8KSUSClxu914vcWcq15Cd2E5155upOjcGSKRCEopDMNIUeLMZBusqBmNH1vANGgFKDQq7h41Wlh9WMztGEKj4mGpgMnqSiJ/voaOjg6UUuO2oJHiWKNb0zTp6+tDSklkxtV4w73MC57BjITHNdeZSra4QQBTaUwdb3wdxe114ZpegvR6UB4D4THAJRGmAlMl4CSaKukkWcJj0H95Fec6OjBNMyMIw4Wlk47Wms7OTk6UzaHm/GkKnAwL4nejMomaEUSBoPjPc3BdVYESse9EfOZdKYWIuxmINZZVbc3IjaeUoqO9fViLstJJdT5S2FjSaVdu2nxV+HI4e2fbRK6pFfgMiv91PuFCSVfnOaLRKEqpYV+TZNLA2YKQbtoD1d/fT0vZbOZcErCUSeE//Ylu3U+gI5AIz8VdPpawbObf4fZdHO7mQLa9rVNCEZ3uJRAIpIyXrb4km6DSzb/bKBx5djgLsg2We+ZUgn2hpDA7+pLxpDPW68JRhcqhG7QNllnkwjTNxLmdIza7rExphVLm4EuyJltgaa2J6NSVcKKVDYmjQanxrSlJJfssa8BQxk7ryFY6Y007F8Bsg1VUNhWYWOvIdV+mhQCXe9T0MpUtsIQQiHFMrI52TS7TGet1gz+zKdssazJaRzpxxpp/Ll/t5xzWSIWfbNaRy5sgW7LNsgYuDZuM1pGrdLKpSbHeeLJZx2S1Mvumm1TsVWKup3wmczrjla2W5cQ+KNN0cqFJNRq8VKwsV5qwPsvO2YZLxcomBNZkbOBsWVkuZTusXE75OKFPHI8mfOiet7L0NaGjwUvZynKhCbesgbLTyrKZv12aNKPBXFqZXfnnYhXuQE2a0WA6cSabixwM6pKENVh2PnOlk/ZY07FAXXKjwYmeWM22ldkFCibB3KCdU0fZvlGGc3253PxgQt2gk61sICgrLNe7VEzIy0dwtpUNB8o6zqU7tA2Wy3VxLdpkGm6PJW0YGdRY8s9Utq1uslyE3VM+2QQ8GiilVE43+7Jv3WBR0bDh2WrgXFvZaM9R6cQZr2xZ3SSlpLi4eMKfizK9bjCEkdLxeDw53bTENlhVVVVJf5gwUtzRwuye/XC5XClBWVJKMWXKFOfDcrlcXHnllUlD21y6sXTipJP/YFCp0u7v76empianD8i2wDIMA5/PR2VlJeFw2FbryDSd4UCNlHY0GsXlcnHFFVfgcrlyNsiwDVZhYSG1tbVEo1ECgQCRSATTNNN+kLTTRaYCZf2hummahMNhent76ezsZMGCBfh8Ptxud84sy5bNIU3TJBgM0tbWRlNTE4cOHeLMmTOxAgzzIDlaZXM9/E/3Oq01JSUl3HLLLcyfP59Zs2YxZcqUpGfKbMq2nTwjkQgXLlygvb2ds2fP0traSmdnJ6FQiGg0SjQaHVce2erfUl1nDZbcbjcFBQWUlpZSVVVFZWUllZWV+Hy+xIgwF7IFFsRGS5FIhFAoRDAYpKenh0AgQDgcTuzY4gQZhoGUEo/Hg8/no7i4mKKiIrxeb86H7rbBsva6sKwoHA4P2Qdjsv/DIQuCtX+Ty+XC7XbjdrsTEHM53WQbLEtWBz3w0wmgLA0EZrlFu3a7th2WpYHZOgWUpcEz7bblm/9nZ87RpFiDkVd6ysNykPKwHKQ8LAcpD8tBysNykPKwHKQ8LAfpDwOrtbWVp556io6OjokuSsb6w8Dq6Ojg0KFDhMPhiS5KxsoY1rFjx1i2bBldXV3ZLM+kUyQSYeXKlXzxxRcTXZTMYYVCIfr6+rJZlkkprTU9PT0TXQzgD+QGLwWNe7HAXXfdlTiuqalh586difMjR47wzjvv8PPPP+Pz+bj11lvZuHFj0urcbdu2cfToUVpaWgiFQpSUlLBixQqWL1/Ou+++y7fffktXVxczZszg3nvvZdWqVUn519fX8+OPP3L27FlCoRDl5eUsWrSI9evXM3369JRl7+vr49FHH6W5uZlAIEB5eTl33nkn69atG/JqfsuWLWzZsiVxfvDgQXw+X9r1bGpqoqGhgePHj2OaJpdddhmbNm1i0aJFabf1uGHV19czdWpsS9WCgoJE+KeffsqLL77I6tWrefDBB2lvb2fXrl2cOnWKV155JfEe6OOPP+bmm29mw4YNeL1eTp48SUNDA3v37sXv9/Pwww9TWlrK4cOHefXVV5k2bRq33XZbIp9PPvmExYsX89BDD1FQUEBzczPvvfceX331FQ0NDVRVVY1Y9sLCQhYvXkx1dTUej4fjx4+zc+dODMPggQceSIq7ceNGamtrE+cWiHTq2dXVxSOPPMLChQt5/vnnMQyDU6dOMW3atLE1ts5QjY2N2u/3687OziHfBYNBfccdd+g9e/YkhZ84cUL7/X79/fffJ8Juv/12vX///qR4b731ll65cuWQdOvq6vSTTz6ZFDbc9YFAQK9Zs0Y/8cQTibCjR49qv9+vf/vtt5T12rp1q167dm3ivL+/X/v9fv35559nXM8vv/xS+/1+ff78+ZR5j6ac9FmNjY2EQqEkFwlw1VVXMWPGDI4dO5by+rlz59Ld3c358+eHhDc3N4+a/5QpU1i1ahVHjhyht7d3TGWfM2cObW1tacVNt56zZs0C4IMPPkhs5ZeJcrLA7cyZ2D8bW7ly5ZDvlFKjjq6Ki4sB6O3tpbS0NCk8GAymVYaamhqUUrS2tibSG6xQKMTu3bv5+uuvaW9vx+PxUFRUlPZKq3TrWVNTw+OPP87WrVv57LPPWLNmDcuXL6ewsDCtfCzlBJbWGsMw2LFjx7Br6EpKSlJeb62G1YNWHBiGMeb1GqniP/300/zyyy9s2LCB6upqpJQcPHiQjz76KO20063nihUrWLJkCQcOHODtt99m9+7dvPDCC8ydOzftumQMy+2O7V8+3F04c+ZMTNNESkl1dXWmWYxLv/76K0KIEQcYPT09fPPNNzzzzDMsXbo0EX769OkkWNbq2mzUs6SkhPXr13Pffffx2GOP8fLLL7Njx46065Rxn2WNZFpaWoZ8d9NNN1FYWMiePXsyTX5cikQifPjhh1x33XWJu9uy1kgkAlzcBna0PkRKSVlZWVbr6fV6qa2tpbW1dUzXZWxZs2fPZubMmWzbto21a9diGAZNTU3U1dUxdepUNm3aRH19Pd3d3SxdupRp06bR0dFBd3c3999/f6bZDqtdu3bR3d3NvHnzCAaDvP/++7S0tLB9+/ZEnFmzZiGlZN++faxbt47KykrmzZtHQ0MD0WiU2bNnY5omP/3005D0Fy5cyP79+yktLaWiooKTJ0+yZMkS5syZk1Y9m5qaOHz4MAsWLMDr9dLc3MyBAwe4/vrrx1TPjGFJKXn22Wepr6/npZdewuv1cs0113DhwgWmTp3K3XffTUVFBfv27eONN94gHA5TUVGB3+/PNMsRdcMNN/DDDz+wf/9+lFJce+21bN++nauvvjoRp6ysjM2bN7N3716qq6tZvXo1zz33HK+//jqvvfYagUAAn89HeXl50nMcwObNmwmFQrz55ptoramurubGG28ESKueoVCIxsZG9u3bRyQSoby8nCVLllBXVzemejp+3eCyZcuoq6vjnnvumeii5Fz5uUEHKQ/LQXK8G/wjKW9ZDlIeloOUh+Ug5WE5SHlYDlIeloOUh+Ug5WE5SHlYDlIeloOUh+Ug5WE5SHlYDlIeloOUh+Ug/T/JbJIG4qk/9QAAAABJRU5ErkJggg==;" vertex="1" parent="1">
          <mxGeometry x="318" y="250" width="107" height="108" as="geometry" />
        </mxCell>
        <mxCell id="pUrFRmJCfLfQvqRxiuOl-9" value="" style="shape=flexArrow;endArrow=classic;html=1;rounded=0;" edge="1" parent="1">
          <mxGeometry width="50" height="50" relative="1" as="geometry">
            <mxPoint x="260" y="170" as="sourcePoint" />
            <mxPoint x="200" y="230" as="targetPoint" />
          </mxGeometry>
        </mxCell>
        <mxCell id="pUrFRmJCfLfQvqRxiuOl-11" value="" style="shape=flexArrow;endArrow=classic;html=1;rounded=0;entryX=0.25;entryY=0;entryDx=0;entryDy=0;" edge="1" parent="1" target="pUrFRmJCfLfQvqRxiuOl-6">
          <mxGeometry width="50" height="50" relative="1" as="geometry">
            <mxPoint x="320" y="170" as="sourcePoint" />
            <mxPoint x="370" y="180" as="targetPoint" />
            <Array as="points">
              <mxPoint x="330" y="210" />
            </Array>
          </mxGeometry>
        </mxCell>
        <mxCell id="pUrFRmJCfLfQvqRxiuOl-12" value="" style="shape=image;verticalLabelPosition=bottom;labelBackgroundColor=default;verticalAlign=top;aspect=fixed;imageAspect=0;image=data:image/png,iVBORw0KGgoAAAANSUhEUgAAAGsAAABsCAYAAABtuky0AAAABHNCSVQICAgIfAhkiAAAABl0RVh0U29mdHdhcmUAZ25vbWUtc2NyZWVuc2hvdO8Dvz4AAAAuaVRYdENyZWF0aW9uIFRpbWUAAAAAANCh0YAgMjYg0YTQtdCyIDIwMjUgMTM6Mzc6MDOvSqFcAAANm0lEQVR4nO2de2wcRZ7HP9Xd4xnP2BM/xo+sX3k4yZ6TgIR4eGWHx94lQohIK12WoBUEJBT+IAgQIMQfERziD/5BWIIIHQIJhMSKJBdBiCKCcjqCgpfbRISc1rfBjkNwbG/s2B7bmYk9nkfX/eH0xI7H47HdM919mY80mqS7+lfl+nb96ldd1TVCSinJ4wgUqwuQJ3PyYjmIvFgOIi+Wg8iL5SDyYjmIvFgOIi+Wg8iL5SDyYjmIvFgOQrO6AAuRrUeXQois2M0mthBLSomUksnJSWKxGPF4nHg8jq7ryXPZoLi4GL/f7xjhLBVLSkk0GmVgYIDBwUF0XU+ey2YFJhIJpJRomkZjYyNlZWWOEExYNUUipeTKlStcunQJVVWpqKjA6/WiaRqqqqIoCooy3aUaFZlpUReq+MuXLzM0NER5WSmDV4ZYv369IwSzpGVJKRkdHaW7u5uysjJWrVqVPD4zTSKRSHntQixU6fF4HKnr1NXWoOs6586dY8OGDQQCAVsLlnOxDNfX1dWF1+tl9erVyb4pExbbyhaivq4WIQRdXV2oqkppaaltBbMkdA+FQgwMDFBbW7sooWYihDClUoUQ1NfVUlVZwblz5xgeHs5aQLNcct6ydF0nGAyiaRpFRUWzgoqlYFZLa6ivQ0pJZ2cniqLYsg/LacsywvCxsTECgYCpd7DR0jKp4PnSNNTXUV1VSWdnJ8Fg0HYtLOduUNd1rl69is/ny1oeCwkmhEAytzUKIWior7OtS7TEDU5MTCTFmlmxZre0pdqsq61JBh12cok5d4O6rhOJRPB4PHPOZ6NCUrlGTdOuDw1S95dCCOpqa6iqrODnn3+2TQuzJHSPx+OoqpryvNmheSq7LpfrejliaFrqcsB0H6YoCp2dnQghKC8vt7SFWRK6Sykz6lfMCs9vtuvz+dB1nWvXJhZMX1vzG6qrKunq6mJkZMTSFmaZWMajpEwwWzBN06ioqKCnt4+R4CiRSIR4IoEuJTdrYQQdlRUBOjs7GR0dtUwwS9zgUgfBM20sl5qaGgB+uXgRRVFn2U91a0gpGR8fZ3x8nJKSEkvcoS2mSBaLEGLZggkhqK2tpaqqiomJieS0jBEEpeLXnh4mJiaSN1yuBXOkWGBeIOJyuVixYsWc46nsSimJxWK3jhs0m2yP0262u9RnmWZg2RqMbI2pskG2hhOLxdIFM9kKzbNl12pssbopG5Vr2P3/hK36rKW4m3hCEonFiSck+vXrVEUBAaoQFLgU3JpquQszA1uJZZCpaH89f4X/+O9f6R25RmgyRiyhowgo9XlQFPBoKuV+N5vqytjRvBqfR8vIrl2xpVgG6UT75MR5Pv3u/JzjihAkdJ2EDrG4TigS49crYf52KciL2zfzm1KvKeM0K7BFn7UQN/dpp7qH+OxkNy5N4d923s3rO+/GpaX/U3qGwvz7N+eIXX/Snq1AJJs4QiwDo3L//P0FErqk2FPAA5tr+P3mGoo9BQtef3EoxMRUPKVdJ2BrNzgf/cHpp+WhSJT/+ls/EkkoEl3wukg0ga6ndn92GUulw5FiGcTiOm/sP2WqzWw9ETED24sV1yVfn+nl879cYGB0MhmeLxVP3wsUFk4gVR8J793E/Q8htcqUae0WiFgmlqIoqGr68Y+Ukj+f7Ka9cxBvgYs1Va6F7QqB3zt//6UW1oE7ggC06C+oY/uJBp4GpTCtXTuIZnnLStdXXBgMcfrCMIoQKGpmQYAiBJqaJm4S2vTH+G9iFG38CPHSP5J6JutGOa0ORGwTDaaqjB+6rhCfZ1GLmaiRvyPiV7Kez3KxjVgGM0X7395RU2271TiqmGdFU/QfpuaVDWwnloGUMBaeMtXmyqIQbm3umykAQg+bmlc2sK1Y8YSOmV26R4uzY0MHLiW1WDDfcftgeYAxH4qSvjNXhKSxdIQ1JaN41FjyuBAK7oLCWen87il+Wz5EiTuSzuJyi5x1HCmWEJI/Nf0P/7LqQqorQS1edH5C2F8s25ZQEQK3K/Vq2btX9vH7hl9MzU8Kly3C83TYViyACv/c9fAA/9zwC4oweZCq+pP/tKtothZrU31pyuMV3mum5yVdNXOO2U00W4t159oKClLMUwlT40RI+O5CqnPXDibzs4lotharPlDE/RtXLhgZLgepVZDwb82afTOxbTRo8K/Nq6kpK+LY2V4Gx5b/1N1ACjd64Ub04ntBuE2xmW1sL5YQgt9tqOR3G25MY7j+8Z+QSDdmmp9Y9ctIZfGhvR2wtRtcNu4GWPns9Pd1BPbof5aCI8WSWnlmCcu2g7tm+htAFCDFjS2GFiOaVW+OzMQSsYQQy9r/QvdvI6OiB4/AVP/0NyBdK+f0T3aJ9DIh52IZlbOcmVfd81sSK7YtnHCqBy7vg6kepKuaROkfZk08pirXfBjltVJYSwIMRVGIxWILJ0xDwv8g0tWAEj6BiF1B6NdAJkAIQAGhIEUBqH6kZy2JovtASf1EZCbzzVwbnmAxr9eajSViFRQUEA6HKS/PsO+ZB73wn9A960FGQSYQ6IAAoVyfoVdAuKY/i+Rm0Yy3IjXNugA65zkLIZJimWNQBTE9JWK0BTNdlWHLEMvlclnmCi3ps7xeL8PDw47q3KemppBS4nZbN4DOqVhCCBRFobS0lL6+vmS/5QTRRkdHURQFn89367QsRVGSWxP09/fPOmdX0XRdp7u7m0AgkGxZVpTTEjdYUlJCWVkZZ86cSRnC20k0IQRnz55lZGSEhoYGNE27NVqW4QY9Hg+NjY3ous7Bgwe5cOEC8Xh8TiUs5bUcsypSCMHY2Bjff/89HR0dNDQ0EAgEUFXVMrFyvvu0sdHWtWvXuHjxIl1dXQwPD5NIJFi9ejVVVVX4/X6KioooKJheBq1pGoqimLb79Ezi8Xjye3JyklAoxNjYGN3d3YTDYbxeL42NjTQ0NFBdXU1BQcG8m4RlG0u2Ctd1nVgsRjgcZmBggGAwSCgU4urVq0QiEaLRKLFYLLn/erpdX5aLUfGKoqBpGi6XC4/Hg8/no7i4mBUrVlBVVUV5eTlut/vWallwY9/BeDxOLBbj6tWrhMNhpqamkr+YMFOomdeZyaz9moRI7ievaRputxuv14vf76ewsHDWfvNWYekm/Mbe7bquk0gkZv2shbGnezZ/3gJmBzNGn6qqKi6XC1VVkx/jnJVYJhbcaCmGIDM/qdJlg1RBjfF988dqLJ0pvtkNzcSKeyiVIHYQycDSlpVncThypvhWJS+Wg8iL5SDyYjmIvFgOIi+Wg8iL5SDyYjmIvFgOIi+Wg8iL5SBy+iD3nXfeob29nbGxMbxeL/fccw/PPfccfv+N93m/+uorjh07Rn9/P+FwGJ/Px8aNG3n88cdpamqaZa+trY2Ojg4GBgaYnJykrKyM5uZmnnzySQKBQNqyZJLPmTNneOGFF/jkk09Ys2bNrOuffvppNm7cyPPPP29S7SxMTsVqamrirrvuoqioiMHBQT788ENef/112trakmna29uZmpri5Zdfxu/3EwwGOXLkCM8++yxvvvkmLS0tybRff/01LS0t7N69G7fbTW9vL/v37+fkyZN88MEHVFdXz1uWTPK57bbb8Pl8nD59epZYk5OTnD9/nsceeyw7FTUf0kK+++47uWXLFjk0NJQ89sorr8i9e/fOSqfruty7d698+OGHZTQaTR7funWrPHTo0Ky04XBYPvLII/LVV19Nm3em+bz22mtyz549s9KdOnVK3nvvvXJ8fDzzP9YELO2zjLt1cHAwbTohBLt27WJ8fJxTp9Lv3Onz+dixYwc//PADoVBoUeVJlc/9999PR0cHIyMjyXQ//vgjjY2Ns9x3LsipGzx8+DBHjx6lt7cXKWXyxYRUP8t+M2vXrkVRFPr6+hZMayxzu3z5MsXFi3sl9eZ8WltbKS4u5vjx4zz66KMAnD59mtbW1kXZNYOctazPPvuMd999l9bWVt566y3ee+89du7cmfH1cglzpGZc43K5ePDBBzl69CgAwWCQ7u5uS8TKWcs6fvw4Dz30ELt27UoeKykpyfj6vr4+dF1n5cqVC6bt6elBCJE2wFhMPtu3b+fAgQP89NNPXLp0icrKStatW7do28slZ2Lpur6stX8HDx6ksLCQO++8M226WCzG4cOHuf3221P+iNlS8qmvr2fLli3s37+faDTK1q3W7JuRM7FaWlo4cOAANTU1bNq0CUVR6OnpSZm2vb2dt99+m+bmZlRV5dtvv+XYsWO89NJLeL3eWWk//vhjxsfHaWpqYmJigoMHD9Lf38++ffuSaT7//HPef/99nnnmmWS/s9h8nnjiCXbv3o0QghdffNHEmsmcnIn11FNPAfDll1/y0Ucf4Xa7KSkpobm5ec4bkOvWrSMUCtHW1kYoFGLVqlW88cYbPPDAA3Ps3nHHHZw9e5ZDhw6h6zqbNm1i3759rF+/PpmmsrISj8dDZeXsLcEXk8+6devYvHkzUkpqa2vNqJLFk9OBQgakGv/MR6pxVjbykVLK4eFhuW3bNnnixIkl5WcGtt9hxkq6u7uJRCIMDQ3x6aef0tTUxH333WdZefJipeGbb77hiy++wOv10trayp49eywtT36Rp4PIT5E4iLxYDiIvloPIi+Ug8mI5iLxYDiIvloP4P4rLmaOfH4/3AAAAAElFTkSuQmCC;" vertex="1" parent="1">
          <mxGeometry x="510" y="230" width="107" height="108" as="geometry" />
        </mxCell>
        <mxCell id="pUrFRmJCfLfQvqRxiuOl-13" value="" style="shape=flexArrow;endArrow=classic;html=1;rounded=0;" edge="1" parent="1">
          <mxGeometry width="50" height="50" relative="1" as="geometry">
            <mxPoint x="360" y="160" as="sourcePoint" />
            <mxPoint x="500" y="240" as="targetPoint" />
            <Array as="points">
              <mxPoint x="380" y="200" />
              <mxPoint x="430" y="200" />
            </Array>
          </mxGeometry>
        </mxCell>
        <mxCell id="pUrFRmJCfLfQvqRxiuOl-16" value="" style="shape=image;verticalLabelPosition=bottom;labelBackgroundColor=default;verticalAlign=top;aspect=fixed;imageAspect=0;image=data:image/png,iVBORw0KGgoAAAANSUhEUgAAAGcAAABuCAYAAAA6Tg0xAAAABHNCSVQICAgIfAhkiAAAABl0RVh0U29mdHdhcmUAZ25vbWUtc2NyZWVuc2hvdO8Dvz4AAAAuaVRYdENyZWF0aW9uIFRpbWUAAAAAANCh0YAgMjYg0YTQtdCyIDIwMjUgMTM6Mzg6NDOTRXQOAAAN80lEQVR4nO2de2xb1R3Hv+dePxM7sW+SLkkTl4ako+nCNrEyHonpOug6hFSKilQtSKCB+CcaFAnUIATiD8ofPKQhJqAqgoBAKlFZ0aZShUJIgW1tI7J07dbSOG3iuknIO65fsa/v2R/ude1gx4/Y9x4XfyTLjq/Pub9zvvf3O4977gmhlFIUYRJObQOKJKcoDsMUxWGYojgMUxSHYYriMExRHIYpisMwGrUNSEW+xsiEkLzkm0uYEEcWIBAIIBgMQhRFiKKIcDgcPZYPkXQ6HSorK8FxbAYQVcWhlEIURczMzODSpUsIhULRY4QQUErzcoXL59VqtQgGg6ipqQHP8zk/z0pRTRxKKbxeLxwOBwKBAKqrq1FaWgqtVgue58HzfNwVLYuVDqkEDYVCOHXqFK5bY8OQYxjhcBj19fXMeZAq4lBK4ff7cfr0aej1erS0tEQrJjaMhcPhhGlTkUocOWQKVguarm+A4/wFEEJQW1sLjYaJSA9Apd4apRQulwvz8/NYt24dOI6DJEmQJAmU0mUFIIREX7lAEKxobFiLkZERjI2NQZKknOSbCxQXR/YIp9OJ5ubmqDDZkEuBftrUCJfLhYsXLyb0WDVQ3IcppXC73fD7/aiqqlpxLyxWoJXkJQhWhCUJw+cvgOM41NbWqt5JUEWc2dlZ6HS6lCEsU1bqSVWVFeA5Duccw5AkSfVOgqJnppRCkiTMz8+D5/mcth2xpJMnISRhOBUEK9bFhDhRFHNuX7qo0uZ4PB5otdqo1+RDpHQ6Dsm8VrBa0Hh9pJNw6dIl1ToJqojj9/sTdlnzNaWyNF9CCDiOQzBm0LsUwWrFDeua4HK54HQ6VekkKNrmyG2MKIpJhchVA79cvoQQ8DwPn88Ho8GQNI0gWNFICM4NDYHjOKxevVrRToIqnpNumMhXm8TzPPR6PWbn5lNeAJGB6vUYHR3BxYsXFQ1xqs0QZFLp8m9z5UmEEFRUVMDlcmHi+0mUl5dBp9WC47iEF0RFhQAQ4PyFEXAch7q6OkV6caqJkw25FEkQBACA0+nEpbHx+Hm8JGm8Xh/GxsZQW1ubN6+OpaDEkclkEnQ5BEGAxWKB1+tFKBSCKIrLTiFd9ngwNzcHSZIUaXvYmeXLkFx1HDiOg9lsTnhsab5TU1Nwu92KtTtszZFnST4Hs0svgnQmZ3PFNSGOTL5nHJS+ta1qWMv3mIalebtsYKbNyaSRn3YDw+MUCx5gy03JKy02z77/AGUlgG0VUFmWE5PzDjPiAKmv+LAEfDZAcfAfkc8AsOWm9PL8+3F5Hg/Y/PNIOg3jQZ1J85JNWg44gL9eEcaoA3790/Tz/FVTJA2lwJcngf7vcmx0HmDKcxIRG5q+Ok0hSUCNADyzk8CoTz+fP/yGICgCf/kbhWsa+OcZ4Nb1eTI6RzDpOUuRvejiZOTvluuQkTAyOg2wYU3k8/gsQJH/Uf5KKAhxZALByLtRn32FGnVyuwYEr9wxYFWgghJH7iYQZF+hsclo3Pe5XdWTC5hvc5ajkMZJ2VBQnrMcSkzfKI1qniPfjczk6qxfBYTDgMVEwHHZVZrZCKyuipxTwxMwtgI3DlXFiX1PJZIkARwBwAN6XXp5J8pTp6XgrwgSznByWWkvYua6SRVCJuYopCt1XZr8tn/KPGN7etMLbO+PwYw4MokqNBAEjvw7UpE8AeqrssuTEIJa4eq0zVf/BXyBXFidH5gTR0auzAEHxZ8PShj5HtBqgLs3ElhN2YeXEgPB7zcS6LXA5Dzwdg/FqQtsehCz4shc9gOLVxZdmgxA85qVx/211QSWkkg+ogR4GPUe5sVZbyNo+xmBQQfMeYD9RyWEVrC+T5KAQ8clfL9AodMAGxsJmmrZGXjGwrw4P7EQ/PYXHOw/i5g6OonoHFs2TC1QDE9EPv+ykcB+I0GVha2ZARnmxZH5ecPVz7Oe7AeIs5evfm6ujz/G2hROwYhTaiDR8UkgeLUBz7QygzHLo0uXmUBlQaCCnFtLtDIp3cFsOIOOWb7m7tKlYDwnXdR85ifXXHPiyOTrmR8luWbFkWGpgc+UghJHk+WEJXBVpNj2iuUZaaDAxDFfGdXPebLPY84beTfqItNBLKOKONk+JdC0OvJ+1kXRd5Ji5Pv083BNU/zrDMXZi5E0a6szD3eUUkWfrlZNnGzYuI6D2QiERKDvlISuI+nHt/1HJfzjfxKCYmTlzsZ1V+8npWtPvjZKSoYqjs1xXFaeI5iBP/6Ox8nzFOcuUcxdTj8PvQYoLyVYWw1sWMNBWPLURzrjpB+NONk+nWw1AZtuJNh0Y2aV9Kdt6T3stJxI4XAYWq02o/OuBMXDGiEEOp0OwWBQ6VNnRKJwFwqFoNPpFPMeRcWRC2U0GuM2vmOZWJEWFxdhNBoVGzup4jkmkwk+n6+gBoiEEPh8PphMJsXOqbg4HMehsrISbrcbgUDkFmQhiOTz+eDxeCAIgmLdaVU8x2w2o6SkBIODg3ENL6siUUoxODgIk8kEs9l87bY5HMdBr9ejpqYG3333HaanpxPuTcOKSIQQTE5OwuFwoKamBjqdLrqZRL5RxXN4nofNZkNVVRV6enpw8uRJ+P3+pCKpIRQhBH6/H4ODgzhy5AgqKytRV1cHjUajmD1E6f88JW8jGQgE4HQ6cf78ebhcrugOuWvWrEFZWRnMZjP0en1UzEyW7mZSefJ+arJNXq8Xbrcbo6OjGB8fh8FgQH19PdauXQubzQaDwRDdKy7fKC4OAEiSBFEU4ff7MTk5iampKXg8HiwsLMDv92NxcRHBYDC6KaucJh+myjtxcBwHjuOg0+mg1+thNBpRXl4Os9mMqqoqVFVVwWg0QqPRKNYhUEWc2K29QqEQfD5fdN/PUCiEUCgUt1tubLpcsnSbL1kgjUYDvV4Pg8GAsrIylJSUQKvVRkPaNRvWZGSBZBHC4TBCoRDC4TDC4XCcMPnezkT2BFkgOYzKG5DLoind/qkmDhC/wffSV7Lf5ppElR3bEYkVROmOiarixLLUDLXMStRjVAtmxCnyQwrqNvWPjaI4DFMUh2GK4jBMURyGKYrDMAUnzrFjx7Bnzx61zVCEghPn3LlzGBgYUNsMRVBcnA8//BAPPvig0qctSBQXx+PxMPNvt1in4MLaj4mcr/icnp7GG2+8gRMnTsDr9aKiogLbt29He3t79DdOpxN2uz36944dO9Da2opdu3ahq6sLDQ0NcXk++uij2LBhAx5//PGk5/V6vdi3bx/6+vrg8/nQ0NCAhx56CLfccktKm48fP44PPvgAQ0NDIISgpqYGTz75JJqbm1OWJ53yZkvOxXn66achSRKeeuopWK1WTExMQK+P3/Oxuro6rsdlsVhgtVpRWlqK/v7+OHH8fj+GhobwwAMPJD1nIBBAR0cHKKXo6OiAxWJBb28vOjs78eqrr+Kmm5JvodvT04MXX3wRt99+O3bt2gWLxYLh4WGsWrUqrfKkU96soTlkYWGBtrW10S+//DLpb9566y3a3t6e8Nhzzz1HOzo64r47ceIEtdvtdGFhgVJK6XvvvUfvu+++uN+8++67dNu2bdTtdsd939nZSR977LGktvh8Prp161a6Z8+erMqTTnlXQk7bnNLSUlgsFnz66afwer0Zp9+0aRNOnz6NmZmZ6HfffvstGhsbUVaWfKfu3t5e3HnnnT/4hxGtra04depU0ntDcihK5pWpyrPS8qYip+LwPI+XXnoJw8PDuP/++7F3715MT0+nnb61tRVmsxlHjhyJftff34/W1tZl042NjeHAgQPYtGlT3Ovll1+GKIrw+XwJ07lcLmg0GtTV1WVVnpWWNxU5b3NuuOEG7N+/H5999hm6u7vR3d2NJ554Avfcc0/KtFqtFlu3bsWhQ4ewc+dOzM7OwuFwoLOzc9l0lFJs27YN9957b8LjJSUlSdOlWk2TqjwrKW9K8hIsryBJEn399dfp5s2b6fz8PKWU0rfffpvu3LkzaZrR0VFqt9vpwMAA/eSTT+iOHTvijidqc9rb2+mzzz6bsX2ff/45bWtroxMTE2n9PlF5MjmeKXkd5xBCYLfbEQqFou5eUVGBqamppM/n2Gw2tLW14aOPPsLRo0dx1113xR3nef4Hj4+0tbXh66+/xoULFzKy7+abb4bBYMD+/fuzLk8mxzOFf/75559fcS5XWFxcxGuvvQZRFLGwsIAzZ86gq6sLlFI88sgj4HkeZrMZBw4cgNPpBM/zOHv2LPr7+9HS0hLNp76+Hm+++SYmJiawe/fuuM7A7OwsDh8+jPLycthsNuh0Oqxfvx69vb34+OOPIYoiLl++jNHRUfT09EAQBFitVgDA7t278cILL+DWW29FZWUl9Ho9TCYT3nnnHYyMjECSJIyPj+PYsWNYXFyEIAjLlkcUxZTlXQk5bXPcbjdcLhe++OKL6LMsLS0t6OzsjD6ut3r1ajzzzDPo6urCN998g4qKCtx2221x+TQ1NaGlpQWU0h801na7HXfffTf27duHlpYWNDU1obS0FHv37kVXVxcOHz6MmZkZmEwm2Gw2bN68OZq2pqYmutRXZvv27RAEAd3d3XjllVcgSRKqq6vx8MMPpyzP1NRUyvKuiBUHxjwwPT1Nt2zZQvv6+tQ2RVWY2SbB4XAgEAhgamoK77//Ppqbm3HHHXeobZaqMCNOT08PDh48iJKSErS2tqKjo0Ntk1SnuKiQYYq3DBimKA7DFMVhmKI4DFMUh2GK4jBMURyGKYrDMEVxGKYoDsMUxWGYojgM83/hBF6GjB4YdgAAAABJRU5ErkJggg==;" vertex="1" parent="1">
          <mxGeometry x="40" y="410" width="103" height="110" as="geometry" />
        </mxCell>
        <mxCell id="pUrFRmJCfLfQvqRxiuOl-18" value="" style="shape=image;verticalLabelPosition=bottom;labelBackgroundColor=default;verticalAlign=top;aspect=fixed;imageAspect=0;image=data:image/png,iVBORw0KGgoAAAANSUhEUgAAAGcAAABuCAYAAAA6Tg0xAAAABHNCSVQICAgIfAhkiAAAABl0RVh0U29mdHdhcmUAZ25vbWUtc2NyZWVuc2hvdO8Dvz4AAAAuaVRYdENyZWF0aW9uIFRpbWUAAAAAANCh0YAgMjYg0YTQtdCyIDIwMjUgMTM6Mzk6MDY//yLgAAANaElEQVR4nO2dW2wTVxrH/3Ozx5c4cZykjURgCU5iKCFbRLdqUaiWBQrtpohSRCuWir7QSnQfoEUFtIgFVftApVRaSqVsX0gFJVChPISC0AqteFgWVUvaRYiSjRNgaUqA2Ik9vtszsw/pGNuxnXHi8Ryof5IfPOfMzPH5z3e+b87NlCzLMsoQCa13AcrkpiwOwZTFIZiyOARTFodgyuIQTFkcgimLQzCs3gVIRav3YYqiNLmu1ugijizLiMfjiEQiSCQSiMfjkCQJkiQl04sNRVGoq6sDx3FFv7ZWlFQcSZLg8/kwMjICQRCmPNFaPeHxeBwsy0IQBDidTjAM81hYE1WKvjXFUtxuN7xeL+rq6lBVVQWO48AwDBiGAU3TyQqjKEq19aip5P7+frQ0OTF06zZMJhOamppgMBiIF6gkliNJEgYGBhAIBNDa2gqj0QhZltMEUJq0TKYTSU0Fi6III29Es7MRN24OYHh4GI2NjcQLpHm0JkkSvF4vRkZGsHDhQhgMBoiiCEmSkgLlE4CiqKJVoNlsxpLFz2BiYhyDg4NIJBKaBSHFQFNxZFmGJEkYGhrCU089BaPRmNNCpqNYIhkMBix0tSAUCmJwcBCxWIxYgTS3nHA4jPv376O6uroolVAMkSxmM1zNzfB6vRgaGiLWgjS3nFAohFgslvQzxaJgkTLubTLxaGtdjIAgYGBggEgLKok4oiiC4zhNnK8akWiahpSl4nneiJbmJgh+P4aHh4kTSDNxFEcfjUYBACw7GRgW08Gnku+6FEVBErP7OrPZhCWtz2BiYoK4IEFznxOPxwEADMOkHS+lSBzHIRqL5jxnMkhoRjBIVpBQkmgNyP0+UgqRDAYDBCGQN7/FbMYiVwvGvV643W4iLKgk7zlq0FKkyspKjHk8EEUxb16eN2JJ6zMIBAJEBAklGTKQZVl1xWshUkVFBQAKt+78D8FgCLGfO1qzVTzP82hpckIQBAwPD+sqjubdNzP9cYpAxagcnufhdDpx69Yt/DDwX9C0Ij6FXI+BKIoYHR2F0+nUzKqng6jxnGwUSySTyYSFCxciHA4jGo0ikUgkhymyXTsWi+HGjRsQRTEZaZYa4sVRKIZIFEXBbDbDbDZPScu8bigUQjQaTYqnh+U8dsPUpQzBc1lVqSiZ5RQyRqP2elqQed0nPlpT0OKp19KS9EaXZk2vPrbHDd0CgtSK9AVlSDNsPWgKSNdEfeBQYco8lyyIiNYOnpAxkb93JSc2y6RAM+HAFsA2NXAjBiLE6dye3roW4oTVNmV695PNBCJD6ccpcNASIiznwlUZkVj2tOme+LXLKPAG9fcqZreQ1hAhzr9+kOEPqcycUacrf42CxFF4HEQiQpw//6Gw1jW1QmfbUpEsEpE+Zzp+KT6pJJZDURQYhsn5dP79bx5EgtkH5XgLjdXbHQCA23+5jYQ/kZbOWtkZP2INf2wAU8FkTSNBqJI2a7makHmtJsRj2cXhDI9q3vYbG6RIej6GT69cOdMp5SuPIbcANK1/o6KLz8kUqfkFdW+C1auqc14rFRL9x0zQNSBIrVgteqwfd5GIiNb6Oh8gLGRv1kwVNH6/sxYA4N7jRsKX4XMqWFAq+m/m7ZsH1kbEz1UNEaVdvb0mY7asnPxOpTT9v9r3qynvOWqEASYDh0L8EQkQIQ5vze58M5ulbE9+IVEVheIO+GkNEeLAJwBZ5rdRAEDTkG1WAEA44YOM9HwUxeScQZMPGQDPVOSZf6M/RIiT2P8JMO7LnmivBPvXQwCAM8P7EUyMpyWb2UpQ1MzC3jcaP4aJrSTWmogQR6n86djacgRAZvfN7J98UqM7IsQpFK0nd5AiEhHiSOf/AYQj2RNNPOh1vwUA/MdzDnExPR/H8Kruscj+O3C0UVVeErpuAELEkf/5b8h+IWsaZasAfhZncOIywol032RiK6b4nGzPfUtVOzioE4cUiBCH+Xi3qnxvLPh4yrFcTzkpTdNs0L93TyNIaZpmAxGWI/7pk7zNmmJZ169fT66UU5jNXjYul0u3SepqIKJk1PJloPIEBAoOh2PKAqhCKze1ucs3LCBJku7Wp7k4yhzpfDP1lWhsOurr67Nev1DU+CO9VhakUhJxSEPNUIViOXqWv2TiSJI0ZUW1wnfffYdYLMfcqGlYunQpDIYZTL9JKV+uxVO5ylsqNBeHZVnIsoxEIpHzxy5evHjGoW8xNrfLZkmhUEj3jfM0FYeiqOQPTCQSMBqzvwTOphK0mIUjyzL8fj94nte1WdP8PcdgMECSJESjUSL9TzYoioLH44HJZNLV72gqDkVRsFonx2LGx8eTx/R2tNMRj8fx008/wW636zoLR7M7K5VvNBrhcDjgdrun+BVSBbp79y5omn5yxQEe+Zx58+ZhbGwM165dy7rpKkkiSZKE/v5+OBwO2Gy2JzeUVmZ61tXVoaGhAd9//z2CwSAWLVoEu92ec9Cs1J2WFEUhHo/jzp07uHr1KhiGwYIFC2A0GtM2hi01mu+OK4oiYrEY7t27hzt37sDtdiMcDsNqtaKxsRF2ux02mw0mkwk0TYOm6WT4reoHFFBxyqYQkiQhFoshFArB5/NhdHQUt2/fBk3TqK2tRVNTE+bPnw+LxQKWZZ9ccWRZhiiKiEQi8Hg8ePDgAXw+HwRBQDAYRCQSQTweT+6oAWi3/l+xAsWiOY6DwWAAz/Ow2WyoqKhAdXU1nn76aVitVnAcp6vPKcm+0pIkQRRFJBIJhMNh+P3+5PaSym7soiimCVLsYqU+/akCsSwLlmXB8zysVitsNhs4jgPLsro2aUCJxAEeWYMoislPPB5P28YYeLTDoVakBiDKZuOKFaV+JyFQKZk4wKOKz9xPOrMIWouT+T3zky2fHpRUHIVst9RjWDmbACSIoqCLOGXU8cTOIXgSKItDMGVxCKYsDsGUxSGYsjgEUxaHYB5bcb744gts2LABPl+ORVcF4PF4sH79enR3dxehZMVDE3EmJiawYsUKdHV15c3n9Xrx8ssv48svvyz4HrFYLLm18GxR5jjMdHqWZsga4Ha75fb2dnnVqlXyw4cPc+br7OyU29vb5c7OzhndRxTFmRZR02sVC00sx+PxAJj8D4Gvvvoqa56HDx/i7NmzqKmpSeYvlGKOtZCwnUommgxTj4+Pg+M4bNu2DUeOHMHWrVtht9vT8pw8eRJOpxPNzc0YHh5OS/vmm29w/PhxeDwe0DQNl8uFHTt2oKmpKZmnp6cHx48fx9mzZ5PHjhw5gmvXrmFkZAShUAg2mw3PPvss3n//fdTW1uYt85o1a/Dee+/h9ddfBwCMjY3h888/x7fffotgMAiHw4ENGzZgy5Yts60e1Wgijt/vh81mw7p163Ds2DGcPn0a7777bjJ9YmICfX19OHDgAG7evDnFqdfX1+Odd95BbW0tAoEATp06hV27duHkyZPJqVbZ6OvrwwsvvIBt27bBbDZjdHQUx44dw65du9Dd3V2QdezduxeSJGH37t2w2+0YHR3NOSlSKzQRx+fzJUcUN2/ejO7ubrz99tswmUwAgDNnzqC+vh7Lly/HvXv34Pf7085funRp2ve2tjZ0dHTgypUrWLVqVd57t7W1Yfny5cnv8+fPx/bt29Hf349ly5apKr/f78fAwAAOHTqEl156CQCwZMkSVecWE00aWkEQfv7PGqCjowPAZFMFAJFIBL29vXjrrbdAURQsFgsEIfvCKQWbzQaHw4H79+8XXBaXywWLxYLBwUHV51gsFlRVVeHcuXMIBoMF37NYaCJOIBBI/tOG2WzG+vXrcfr0aUiShPPnz8NoNGL16tXJdGUCiMLVq1fx4YcfoqOjA2vWrMGbb74JQRCm/eeoXFRWViIQUL9xNcMwOHz4MIaGhrBp0yZ0dXVhbGxsRveeDZqJk+obNm7ciLGxMVy6dAlff/01Nm7cmFyRZrFYACBpPdevX8cHH3wAh8OB/fv34+jRo9i5cyd4Xt2S9mywLFvw+5DL5UJPTw927NiBy5cvY/PmzWnBRynQxOcEg8G06KimpgYrV65EZ2cnYrEYXnvttWSaYmHKORcvXsScOXOwd+/etGvmCwS0guM4vPrqq3jllVdw9OhRfPrpp2hvb0dlZWVJ7q+J5YRCoSmRzaZNm+Dz+bB27dq0ilbyKW27MumPJCiKwooVKxCPx0vavGliOdnEaWlpwYkTJ+BwONKOKxFcKDS5sfSLL76I3t5eHD58GCtXroTJZIIgCMn0YvDRRx/hypUr6OrqgsvlmpIejUbx2Wef4bnnnkNVVRW8Xi9OnTqFmpoazJ07t2jlmA7NxMnmIxoaGqYcU/IplvP8889j37596OnpwYULF8AwDCorKzF37lw4nc6ilK++vj45w1MhdVmk3+/Hjz/+iIsXLyIUCsFqtaK1tRV79uwp7Wo3vfuPSMDr9crt7e3ypUuX9C5KGkTsQ6AXd+/exYMHD9Db2wue59HW1qZ3kdL4RYvT19eHM2fOYM6cOTh48GDJojC1lCcVEgx5/eRlkpTFIZiyOARTFodgyuIQTFkcgimLQzBlcQimLA7BlMUhmLI4BFMWh2D+DwhgkBVzSN7/AAAAAElFTkSuQmCC;" vertex="1" parent="1">
          <mxGeometry x="160" y="410" width="103" height="110" as="geometry" />
        </mxCell>
        <mxCell id="pUrFRmJCfLfQvqRxiuOl-19" value="" style="shape=flexArrow;endArrow=classic;html=1;rounded=0;" edge="1" parent="1">
          <mxGeometry width="50" height="50" relative="1" as="geometry">
            <mxPoint x="130" y="370" as="sourcePoint" />
            <mxPoint x="90" y="400" as="targetPoint" />
            <Array as="points" />
          </mxGeometry>
        </mxCell>
        <mxCell id="pUrFRmJCfLfQvqRxiuOl-20" value="" style="shape=flexArrow;endArrow=classic;html=1;rounded=0;" edge="1" parent="1">
          <mxGeometry width="50" height="50" relative="1" as="geometry">
            <mxPoint x="170" y="370" as="sourcePoint" />
            <mxPoint x="200" y="410" as="targetPoint" />
          </mxGeometry>
        </mxCell>
        <mxCell id="pUrFRmJCfLfQvqRxiuOl-21" value="" style="shape=image;verticalLabelPosition=bottom;labelBackgroundColor=default;verticalAlign=top;aspect=fixed;imageAspect=0;image=data:image/png,iVBORw0KGgoAAAANSUhEUgAAAGcAAABuCAYAAAA6Tg0xAAAABHNCSVQICAgIfAhkiAAAABl0RVh0U29mdHdhcmUAZ25vbWUtc2NyZWVuc2hvdO8Dvz4AAAAuaVRYdENyZWF0aW9uIFRpbWUAAAAAANCh0YAgMjYg0YTQtdCyIDIwMjUgMTM6NDE6MzX6T9RmAAAPJ0lEQVR4nO2de2xTZf/AP6f37tJ1m9vY2MCNbmPgpv4mL9PXEcVp5FWj+SExGn+ANyQSIxoN+q9CECLBADEBjahIwASjRA2CCrxOhZ8ICL7CBruwd79t3Fq2dW3Xduec3x+1td390p6e+faTLNDTc3n6fM73eb7n6XNOBVmWZRREkiS6urpoa2vD6XQiCELE+/1fRwu/349Op8NqtWKz2dBqtTE7VrQQlJIjyzJ+v5+GhgYcDgfZ2dlYrVb0ej1arRatVotGowlVmCAIjLZoo6nkEydOUFpso7H5AmazmeLiYgwGg6oF6ZQ6kCRJ1NfX09PTQ3l5OUajEVmWIwRIkjTotiNJGk0Fi6KI0WSkxFbEmbp6mpqaKCoqUrUgjRIHkSQJh8NBW1sbZWVlGAwGRFFEkqSQoOEECIIQtQpMSkqi4obZdHZe4/z58/T19Y06QpUm5nJkWUaSJBobG8nJycFoNA4ZISMRLUkGg4GymaW43S7Onz+Pz+dTpSBFIsfj8XDp0iUyMjKiUgnRkJSclMTMkhIcDgeNjY2qjCBFIsftduPz+UL9TLQYs6R+xzabTdxYfgM9Tif19fWqiyDF5IiiiF6vj0nnOxpJGo0GaZCKN5mMlJYU4+zupqmpSVWCYion2NF7vV4AdLpAchjNDj6c4fYrCAKSOHhfl5RkpqJ8Np2dnapKEhTpc/x+PwBarTZiuZKS9Ho9Xp93yG0CSUIJLpd6kgTFsjUY+npECUkGgwGns2fY9ZOTkpg1s5RrDgcNDQ1xjyDFrnNGQywlpaWlcdVuRxTFYdc1mYxUlM+mp6cn7kmCInIgEEGjrfhYSEpNTQUEmlv+jcvlxuf3hy6C+2MymSgttuF0OmlqaoqbHEWGb8b74YKColE5JpMJm81Gc3MzZ+vPodEE5QsMdRqIosjFixex2Wwxi+rhUGxsbSJES5LZbKasrAyPx4PX66Wvrw9JkoaMIJ/Px5kzZxBFMZRpKsmkkBMkGpIEQSApKYmkpKQB7/Xfr9vtxuv1huQpHTmK9TnRRMkUfKioUgJFI2cs39GMdn+xoP9+//LZWpBYnPWxjKR4ErdmLV5jbJOJuCYE4RUZi+Yu3sMvE0U1CcFkau6UQjVygkykQiUZLneCwwnhMTNZJalOTpDxVGjrFdj4mcxXP8uRdiawz3iiWjlBxlKZ+4/LeP1Qfr3AcJtNFkmTYoRgNImDwwl1rWA2QPn1Y9uvWhMH1UdOf4Y66+v/L/DvnFLo953euPcZbyadnCD9K/Rsq4xWAzdMH38lq02SYs2aIAhotdpxNyG9PrjUCdOzB74nSgKuXonCXCjIEtD8ccp12CE3c2JljieK9zljaeclGZo6ZH5vgbpWmevSYEmNBl2/Zut0s4wow8w8AbMxsKz1KuyplcmwQFk+FE8VSE8ZW1k1mvg2LHFLCIaT5PVDyyX46phEtxt0WrAmw5xiAW2/+hIlOH5eRhCgauafWVqWRab8eoFz7TI/noWfzsqU5gtUzQRLEgP2o0binq2FNx1XumSOnpVpviRzzRmQcluZwOzpAllW0A/S0V/tknF7IdsK1rDIMBsF7v4vuLUM2h1wqlGmrlWmoR2y0mDWNIHZ08aePChJ3OUE+fwnmd8uSAhATrpA5c1wS4mAYYQStlwGvwjXZw/eP6SYBUqmgi0POhxwqkmm3Q7f/Srzv/XwP/MFTIbof55ooJrgbuyQECUw6QWqbxD4+2zNiGIATjYE/i2cMvx6GkFgaqbAHeUC07MDzZ/TA33jm1OvCKqJnP/+u5Z/XZA42yqz+58y2VYoKxCYNU0g2zr4Nu12uNgpk5chMCV96MzK3wctl2Tq2qD5ooxfhBwrzMwXMKs0akBFcgqnQOEUDf/4G/z4u8TP9TK1/5L5528ytlyB+TcJXGcBfViJTzYGkolbSjQDOnhZDiQWDe0yP/4u0+MN9FlZFoHqcoH864LrqXN0AFQkJ4hWA/PKNcwphbarMkfrZBraA0nCjFyBRdUadFoZfx/8+4qMyQAlUwfup+mizDcnZVy9gSGduaUCpfkCmakQniGreQhHdXKCmA1gyxOw5Qlc6YQffpfQ6wIZnCAIdLtlHE7Iy2DQpmlqpoA1CSptUFEoYNQPfzw1SlKtnHCyrPDQbRpEidB1zM/noE8MCBwsHTYZYNG8gddFI6EmSarJ1kZCEAiNDLi9cLJRQquBG4s0Qw6zTORCM95DNzCJ5IRz4WKgz5mRK5CWHFimtkHLaDApmrX+NHQEhmsqCgfKiNWkkXgw6SJHkqCxQ8agg7zM4SNlskfSpIucLpdM6VSBJCOjGmWezJE06eSkpwr842/ji4ixTgeWJCmu0adIsxasFDWcuWNJHOJxZ0E4ikSOGtv+0TR3wciJV/kVixwY/b2hSjNU5ft8vgF3gCuJInJ0Oh2yLNPX16fE4cZFMELCRbndbvT6EcZ9YkjM5QiCEPqAapYTTlBQd3c3JpPpr92sGQwGJEnC6/Wqsv8ZDEEQsNvtmM3muPU7ikROSkrgguTatWuhZWofbvH7/bS3t5Oenh63WTgxPWqw8o1GI5mZmTQ0NAzIjNQqqLW1FY1G89eVA3/2OdOnT+fq1aucPn16gBC1RZEkSZw4cYLMzEwsFkvcyhbz65zgTM/s7GwKCgr49ddfcblczJo1i/T09IhIiudQiyAI+P1+WlpaOH78OFqtlhkzZmA0GiMeDKtomZR4Oq4oivh8Pjo6OmhpaaGhoQGPx0NKSgpFRUWkp6djsVgwm81oNBo0Gk0o/R4NY6m44EMhJEnC5/Phdrvp6uri4sWLXLhwAY1GQ1ZWFsXFxRQWFpKcnIxOp/vrypFlGVEU6e3txW63c/nyZbq6unA6nbhcLnp7e/H7/aEnakDs7v8PRkEwovV6PQaDAZPJhMViITU1lYyMDKZMmUJKSgp6vT5ufY5iz5WWJAlRFOnr68Pj8dDd3R16vKT/j4cEiaIYISTaRQs/+8MF6XQ6dDodJpOJlJQULBYLer0enU4XtyYNFJQDf0aDKIqhP7/fH/EYYyDmg6ThCUjwYePBKAp/He9ERVE58GfF93+edP9ixFpO/9f9/wZbT2kUlxNksMPGoyiDCYi3lCBxk5NgZCbdHIL/JBJyVExCjopJyFExCTkqJiFHxSguZ+fOnRw7dkyx4505c4YtW7YodryhWLt2LUeOHBnTNkPKOXr0KAsWLOD48eMTLlg4u3bt4sKFC1Hd53CcPn2ar7/+WrHjDcX+/fux2+1j2mZIOX6/n97e3kkzKWOinD59mnvuuQeHwxHvooQY8su26upqvvvuu7g/xUIpPB4Pvb298S5GBMPW/H+KGLUyZOTU1dWxbNkyPvzwQwoLCwH48ssvOXDgAC0tLaE5XTabjWeeeYaKioqI7UVRZOfOnezbt4+rV6+Sk5PD3LlzB/0VDpfLxbvvvsvhw4dxu90UFRWxdOlSqqqqALDb7SxevJgHHniA5cuXh7Y7evQor732Gtu2baO4uHjID9nb28vLL79MXV0dXq+XvLw8Fi1axP333z9g3Yceeij0f5vNxvvvvw/A5s2bOXXqFG1tbXg8HtLS0rjvvvtYsGABu3fv5tixYzgcDrKysli4cCEPP/zwkOUZLWOaQ1BbW4vT6WTlypWkpaXR09PDp59+yksvvcSOHTvIzc0Nrfv666/zww8/sGTJEmbOnEl3dzfffPMNLpcrYp+9vb2sWLECWZZZsWIFVquVgwcP8uqrr7JhwwYqKyvJzMzk+eef580332T+/PmUlJTg8XjYsGEDjz322LBiIDDaXVFRwcKFC9FoNNTW1rJ+/XpMJhM1NTUR627cuBGLxQIEZg0F+eKLL7j11lt58sknMZvNNDY2snXrVj7++GOqq6tZtmwZVquVn376iU2bNpGZmcmdd945luodwJgneOTn50ccdO7cuSxcuJCvvvqKp59+GoBffvmFQ4cOsXr1aubNmxdat6amZsDZunv3bjo7O9mxY8cfP6MCc+bMobOzk48++ojKykoA7r33Xg4ePMi6devYtm0bW7duxWg0snTp0hHLbDabWbx4cUSZL1++zGeffTZATmFhIRkZGYPu58Ybb+S2224D4Oabb6azs5O9e/eyZs2a0Dq33HILZ8+e5dtvv52wnAl3KkajkfLycs6dOxda9v333zNlyhSqq6tH3P7gwYPU1NSExAS5/fbb+e233yK+43nllVdob29nzZo17N27l1WrVo17LnNlZSXnz58f17ZBysrK6OrqorOzc8Dy1tbWCe0bojQ1ymq10tLSEnrd3t5OQUHBqL60am9vZ8+ePezZs2fAe5Ik4Xa7SU4O3JWblZXFE088wZYtW6ipqaG8vHxCZQ5eKoz351eCJ5TT6cRqtUYsd7vd4y5bkKjI0Wq1Ebd3jPUGpQcffDCiIw4n/KdUJEni0KFDZGVlceTIES5dukROTs64yhwUMpHbUoK3h/T/vnIiT2QMJya5cl5e3qBTbwcjNzeXa9euUVhYOOhfuORPPvmEjo4O3nvvPaZPn87atWujVuZg8zjSb7opSUzk3HXXXdjtdvbu3TviutXV1dTW1tLc3Dzseh0dHWzfvp2VK1eSnp7OqlWrOHXqVNSGZjIzAw8DbWtri8r++qPVakM/yTlaYjIdN5i2vv322zQ2NlJVVYXRaOTKlSv4fL6IdR9//HEOHz7Mc889xyOPPMKMGTOQZZm6ujruvvvu0DXWpk2buOmmm7jjjjuAQFa1aNEi3nnnHebNm0dSUhJ1dXU8++yzVFVVsW7dujGVuaCggNzcXDZv3syjjz6KVqvlzJkzLF++PCp3t+Xn53PgwAFmzZpFaWnpqLaJ2VzpF154gZKSEj7//HMOHDhAX18faWlpVFRURBQuOTmZrVu38sEHH7Bv3z7sdjspKSlMmzaN+fPnA3Dy5EmOHDnC9u3bI46xZMkS9u/fz65du3jqqadITU3FYrFEXG+NFo1GwxtvvMHGjRtZv349ZrOZ0tJSXC5X6LpnIrz44ou89dZb7Nixg9WrV49qm8TsGxWTGDxTMQk5KiYhR8Uk5KiYhBwVk5CjYhJyVExCjopJyFExCTkqJiFHxSTkqJiEHBWTkKNiEnJUTEKOiknIUTEJOSomIUfFJOSomIQcFZOQo2ISclRMQo6KSchRMQk5Kub/AcCUDqbi+md3AAAAAElFTkSuQmCC;" vertex="1" parent="1">
          <mxGeometry x="320" y="410" width="103" height="110" as="geometry" />
        </mxCell>
        <mxCell id="pUrFRmJCfLfQvqRxiuOl-22" value="" style="shape=flexArrow;endArrow=classic;html=1;rounded=0;" edge="1" parent="1">
          <mxGeometry width="50" height="50" relative="1" as="geometry">
            <mxPoint x="370" y="360" as="sourcePoint" />
            <mxPoint x="370" y="400" as="targetPoint" />
          </mxGeometry>
        </mxCell>
      </root>
    </mxGraphModel>
  </diagram>
</mxfile>
